<?xml version="1.0" encoding="utf-8"?>
<!-- Generator: Adobe Illustrator 25.2.0, SVG Export Plug-In . SVG Version: 6.00 Build 0)  -->
<svg version="1.1" id="Lag_1" xmlns="http://www.w3.org/2000/svg" xmlns:xlink="http://www.w3.org/1999/xlink" x="0px" y="0px"
	 viewBox="0 0 378.4 378.4" style="enable-background:new 0 0 378.4 378.4;" xml:space="preserve">
<style type="text/css">
	.st0{fill:#EDE7E7;}
	.st1{fill-rule:evenodd;clip-rule:evenodd;fill:none;stroke:#FFFFFF;stroke-miterlimit:10;}
</style>
<g id="Lag_2_1_">
	<g id="Layer_1">
		<path class="st0" d="M323,55.4c-73.9-73.9-193.7-73.9-267.5,0c-73.9,73.9-73.9,193.7,0,267.6c73.9,73.9,193.7,73.9,267.5,0
			C396.9,249.1,396.9,129.3,323,55.4z M241.9,112.8c0,2-0.6,2.6-2.6,2.6c-6.3-0.1-12.6,0-18.8,0c-8.4,0-13.4,4.3-13.9,12.6
			c-0.4,6.6-0.1,13.3-0.3,20c0,2.4,1.3,2.2,2.9,2.2c9.5,0,19.1,0.1,28.6-0.1c2.8,0,3.7,0.6,3.4,3.5c-1.2,11.1-2.2,22.2-3.2,33.4
			c-0.2,2.5-1.4,3-3.6,2.9c-7.5-0.1-15.1-0.1-22.6,0c-5.4,0-4.9-0.8-4.9,4.7c0,34.7-0.1,69.3,0.1,104c0,3.7-0.9,4.6-4.5,4.5
			c-12.9-0.2-25.9-0.2-38.8,0c-3.6,0.1-4.2-1.2-4.2-4.4c0.1-17.6,0-35,0-52.5c0-17.7-0.1-35.4,0.1-53.1c0-3-0.8-3.9-3.8-3.8
			c-5.5,0.2-11,0-16.6,0.1c-2.2,0.1-3.1-0.6-3-2.9c0.1-11,0.1-22.1,0-33.1c0-2.1,0.6-2.8,2.8-2.8c5.7,0.1,11.3-0.2,17,0.1
			c3.3,0.2,3.9-1,3.9-4c-0.2-8.4-0.2-16.8,0-25.2c0.2-10.3,3-19.9,9.1-28.2c7.7-10.6,18.7-15.4,31.4-16c13-0.6,26.1-0.2,39.2-0.4
			c1.8,0,2.4,0.6,2.4,2.4C241.8,90.5,241.8,101.7,241.9,112.8z"/>
		<path class="st1" d="M241.9,112.8c0,2-0.6,2.6-2.6,2.6c-6.3-0.1-12.6,0-18.8,0c-8.4,0-13.4,4.3-13.9,12.6
			c-0.4,6.6-0.1,13.3-0.3,20c0,2.4,1.3,2.2,2.9,2.2c9.5,0,19.1,0.1,28.6-0.1c2.8,0,3.7,0.6,3.4,3.5c-1.2,11.1-2.2,22.2-3.2,33.4
			c-0.2,2.5-1.4,3-3.6,2.9c-7.5-0.1-15.1-0.1-22.6,0c-5.4,0-4.9-0.8-4.9,4.7c0,34.7-0.1,69.3,0.1,104c0,3.7-0.9,4.6-4.5,4.5
			c-12.9-0.2-25.9-0.2-38.8,0c-3.6,0.1-4.2-1.2-4.2-4.4c0.1-17.6,0-35,0-52.5c0-17.7-0.1-35.4,0.1-53.1c0-3-0.8-3.9-3.8-3.8
			c-5.5,0.2-11,0-16.6,0.1c-2.2,0.1-3.1-0.6-3-2.9c0.1-11,0.1-22.1,0-33.1c0-2.1,0.6-2.8,2.8-2.8c5.7,0.1,11.3-0.2,17,0.1
			c3.3,0.2,3.9-1,3.9-4c-0.2-8.4-0.2-16.8,0-25.2c0.2-10.3,3-19.9,9.1-28.2c7.7-10.6,18.7-15.4,31.4-16c13-0.6,26.1-0.2,39.2-0.4
			c1.8,0,2.4,0.6,2.4,2.4C241.8,90.5,241.8,101.7,241.9,112.8z"/>
	</g>
</g>
</svg>
