<svg width="201" height="205" viewBox="0 0 201 205" fill="none" xmlns="http://www.w3.org/2000/svg">
<path d="M171.555 30.0228C132.296 -10.0076 68.6513 -10.0076 29.4448 30.0228C-9.81492 70.0532 -9.81492 134.947 29.4448 174.977C68.7044 215.008 132.349 215.008 171.555 174.977C210.815 134.947 210.815 70.0532 171.555 30.0228ZM128.471 61.1154C128.471 62.1988 128.152 62.5238 127.089 62.5238C123.742 62.4696 120.395 62.5238 117.102 62.5238C112.639 62.5238 109.983 64.853 109.717 69.349C109.505 72.9241 109.664 76.5534 109.558 80.1826C109.558 81.4827 110.249 81.3743 111.099 81.3743C116.145 81.3743 121.245 81.4285 126.292 81.3202C127.78 81.3202 128.258 81.6452 128.099 83.2161C127.461 89.2288 126.93 95.2414 126.399 101.308C126.292 102.662 125.655 102.933 124.486 102.879C120.502 102.825 116.464 102.825 112.48 102.879C109.611 102.879 109.877 102.446 109.877 105.425C109.877 124.221 109.824 142.964 109.93 161.76C109.93 163.764 109.452 164.252 107.539 164.198C100.686 164.089 93.7796 164.089 86.9265 164.198C85.0139 164.252 84.6952 163.548 84.6952 161.814C84.7483 152.281 84.6952 142.855 84.6952 133.376C84.6952 123.788 84.6421 114.2 84.7483 104.613C84.7483 102.988 84.3233 102.5 82.7295 102.554C79.8077 102.662 76.8858 102.554 73.9107 102.608C72.742 102.662 72.2638 102.283 72.317 101.037C72.3701 95.0789 72.3701 89.0662 72.317 83.1077C72.317 81.9702 72.6357 81.591 73.8045 81.591C76.8326 81.6452 79.8077 81.4827 82.8358 81.6452C84.5889 81.7535 84.9077 81.1035 84.9077 79.4785C84.8014 74.9283 84.8014 70.3782 84.9077 65.828C85.0139 60.2487 86.5015 55.0486 89.7421 50.5526C93.8328 44.8107 99.6766 42.2107 106.423 41.8857C113.33 41.5606 120.289 41.7773 127.249 41.669C128.205 41.669 128.524 41.994 128.524 42.969C128.417 49.0359 128.417 55.1027 128.471 61.1154Z" fill="#AA8044"/>
</svg>
