<svg width="213" height="213" viewBox="0 0 213 213" fill="none" xmlns="http://www.w3.org/2000/svg">
<path d="M106 19.1297C134.322 19.1297 137.634 19.2125 148.814 19.7094C159.166 20.2062 164.797 21.9453 168.523 23.3531C173.492 25.2578 176.97 27.5766 180.697 31.3031C184.423 35.0297 186.742 38.5078 188.647 43.4766C190.138 47.2031 191.794 52.8344 192.291 63.1859C192.787 74.3656 192.87 77.6781 192.87 106C192.87 134.322 192.787 137.634 192.291 148.814C191.794 159.166 190.055 164.797 188.647 168.523C186.742 173.492 184.423 176.97 180.697 180.697C176.97 184.423 173.492 186.742 168.523 188.647C164.797 190.138 159.166 191.794 148.814 192.291C137.634 192.787 134.322 192.87 106 192.87C77.6781 192.87 74.3656 192.787 63.1859 192.291C52.8344 191.794 47.2031 190.055 43.4766 188.647C38.5078 186.742 35.0297 184.423 31.3031 180.697C27.5766 176.97 25.2578 173.492 23.3531 168.523C21.8625 164.797 20.2062 159.166 19.7094 148.814C19.2125 137.634 19.1297 134.322 19.1297 106C19.1297 77.6781 19.2125 74.3656 19.7094 63.1859C20.2062 52.8344 21.9453 47.2031 23.3531 43.4766C25.2578 38.5078 27.5766 35.0297 31.3031 31.3031C35.0297 27.5766 38.5078 25.2578 43.4766 23.3531C47.2031 21.8625 52.8344 20.2062 63.1859 19.7094C74.3656 19.2125 77.6781 19.1297 106 19.1297ZM106 0C77.1813 0 73.6203 0.0828125 62.275 0.6625C51.0125 1.15938 43.3109 2.98125 36.6031 5.54844C29.6469 8.28125 23.6844 11.8422 17.8047 17.8047C11.925 23.7672 8.28125 29.5641 5.54844 36.6031C2.89844 43.3109 1.15938 51.0125 0.6625 62.3578C0.0828125 73.6203 0 77.1813 0 106C0 134.819 0.0828125 138.38 0.6625 149.725C1.15938 160.988 2.98125 168.689 5.54844 175.48C8.28125 182.436 11.8422 188.398 17.8047 194.278C23.6844 200.158 29.6469 203.802 36.6031 206.534C43.3109 209.184 51.0125 210.923 62.3578 211.42C73.7031 211.917 77.2641 212.083 106.083 212.083C134.902 212.083 138.462 212 149.808 211.42C161.07 210.923 168.772 209.102 175.562 206.534C182.519 203.802 188.481 200.241 194.361 194.278C200.241 188.398 203.884 182.436 206.617 175.48C209.267 168.772 211.006 161.07 211.503 149.725C212 138.38 212.166 134.819 212.166 106C212.166 77.1813 212.083 73.6203 211.503 62.275C211.006 51.0125 209.184 43.3109 206.617 36.5203C203.884 29.5641 200.323 23.6016 194.361 17.7219C188.398 11.8422 182.436 8.28125 175.397 5.54844C168.689 2.89844 160.987 1.15938 149.642 0.6625C138.38 0.0828125 134.819 0 106 0ZM106 51.5922C75.9391 51.5922 51.5922 75.9391 51.5922 106C51.5922 136.061 75.9391 160.408 106 160.408C136.061 160.408 160.408 136.061 160.408 106C160.408 75.9391 136.061 51.5922 106 51.5922ZM106 141.361C86.4562 141.361 70.6391 125.544 70.6391 106C70.6391 86.4562 86.4562 70.6391 106 70.6391C125.544 70.6391 141.361 86.4562 141.361 106C141.361 125.544 125.544 141.361 106 141.361ZM175.314 49.4391C175.314 56.4781 169.6 62.1922 162.561 62.1922C155.522 62.1922 149.891 56.4781 149.891 49.4391C149.891 42.4 155.605 36.6859 162.644 36.6859C169.683 36.6859 175.314 42.4 175.314 49.4391Z" fill="#AA8044"/>
</svg>
