<svg width="910" height="687" viewBox="0 0 910 687" fill="none" xmlns="http://www.w3.org/2000/svg">
<g clip-path="url(#clip0)">
<path d="M250.132 185.539C260.51 185.539 268.922 175.36 268.922 162.804C268.922 150.248 260.51 140.069 250.132 140.069C239.755 140.069 231.342 150.248 231.342 162.804C231.342 175.36 239.755 185.539 250.132 185.539Z" fill="#AA8044"/>
<path d="M421.529 189.048C433.293 189.048 442.83 178.869 442.83 166.313C442.83 153.757 433.293 143.578 421.529 143.578C409.765 143.578 400.229 153.757 400.229 166.313C400.229 178.869 409.765 189.048 421.529 189.048Z" fill="#AA8044"/>
<path d="M611.485 408.92C625.686 408.92 637.198 396.18 637.198 380.464C637.198 364.748 625.686 352.007 611.485 352.007C597.284 352.007 585.771 364.748 585.771 380.464C585.771 396.18 597.284 408.92 611.485 408.92Z" fill="#D4B890"/>
<path d="M213.617 80.2583H208.596C201.202 80.2583 195.207 86.2699 195.207 93.6855V238.943C195.207 246.359 201.202 252.371 208.596 252.371H213.617C221.012 252.371 227.006 246.359 227.006 238.943V93.6855C227.006 86.2699 221.012 80.2583 213.617 80.2583Z" fill="#AA8044"/>
<path d="M291.668 80.2583H286.647C279.252 80.2583 273.258 86.2699 273.258 93.6855V238.943C273.258 246.359 279.252 252.371 286.647 252.371H291.668C299.062 252.371 305.057 246.359 305.057 238.943V93.6855C305.057 86.2699 299.062 80.2583 291.668 80.2583Z" fill="#AA8044"/>
<path d="M373.908 80.2583H368.887C361.493 80.2583 355.498 86.2699 355.498 93.6855V238.943C355.498 246.359 361.493 252.371 368.887 252.371H373.908C381.303 252.371 387.297 246.359 387.297 238.943V93.6855C387.297 86.2699 381.303 80.2583 373.908 80.2583Z" fill="#AA8044"/>
<path d="M614.148 425.702H608.975C601.58 425.702 595.586 431.714 595.586 439.129V673.495C595.586 680.911 601.58 686.922 608.975 686.922H614.148C621.543 686.922 627.537 680.911 627.537 673.495V439.129C627.537 431.714 621.543 425.702 614.148 425.702Z" fill="#D4B890"/>
<path d="M455.227 98.7207V93.6855C455.227 86.2699 449.232 80.2583 441.838 80.2583H368.882C361.488 80.2583 355.493 86.2699 355.493 93.6855V98.7207C355.493 106.136 361.488 112.148 368.882 112.148H441.838C449.232 112.148 455.227 106.136 455.227 98.7207Z" fill="#AA8044"/>
<path d="M455.152 238.943V233.907C455.152 226.492 449.158 220.48 441.763 220.48H368.808C361.414 220.48 355.419 226.492 355.419 233.907V238.943C355.419 246.358 361.414 252.37 368.808 252.37H441.763C449.158 252.37 455.152 246.358 455.152 238.943Z" fill="#AA8044"/>
<path d="M799.998 408.157C739.138 408.157 689.994 470.639 689.994 547.693C689.994 624.747 739.366 687 799.998 687C860.629 687 910.001 624.594 910.001 547.693C910.001 470.792 860.705 408.157 799.998 408.157ZM799.998 652.288C753.592 652.288 716.316 603.843 716.316 543.955C716.316 484.066 753.897 435.698 799.998 435.698C846.099 435.698 883.679 484.143 883.679 543.955C883.679 603.767 846.403 651.983 799.998 651.983V652.288Z" fill="#D4B890"/>
<path d="M449.371 268.698H198.478C192.302 268.698 187.295 273.719 187.295 279.913V288.61C187.295 294.804 192.302 299.825 198.478 299.825H449.371C455.547 299.825 460.554 294.804 460.554 288.61V279.913C460.554 273.719 455.547 268.698 449.371 268.698Z" fill="#D4B890"/>
<path d="M262.076 0H11.1829C5.00676 0 0 5.02102 0 11.2148V21.4378C0 27.6315 5.00676 32.6525 11.1829 32.6525H262.076C268.252 32.6525 273.259 27.6315 273.259 21.4378V11.2148C273.259 5.02102 268.252 0 262.076 0Z" fill="#AA8044"/>
<path d="M329.327 282.429H318.525C312.349 282.429 307.342 287.45 307.342 293.644V675.709C307.342 681.903 312.349 686.924 318.525 686.924H329.327C335.503 686.924 340.51 681.903 340.51 675.709V293.644C340.51 287.45 335.503 282.429 329.327 282.429Z" fill="#D4B890"/>
<path d="M142.032 16.3271H131.23C125.054 16.3271 120.047 21.3482 120.047 27.5419V429.748C120.047 435.942 125.054 440.963 131.23 440.963H142.032C148.209 440.963 153.215 435.942 153.215 429.748V27.5419C153.215 21.3482 148.209 16.3271 142.032 16.3271Z" fill="#AA8044"/>
<path d="M394.371 423.95L392.621 682.882C392.621 683.961 393.043 684.998 393.797 685.768C394.551 686.539 395.577 686.982 396.653 687.002H425.485C426.015 687.002 426.539 686.897 427.028 686.694C427.517 686.491 427.962 686.193 428.336 685.817C428.711 685.442 429.008 684.996 429.21 684.506C429.413 684.015 429.517 683.489 429.517 682.958V531.215C430.354 522.137 435.223 480.1 466.87 462.554C471.266 460.229 475.878 458.338 480.639 456.908C494.271 452.714 508.569 451.135 522.784 452.254C527.549 452.521 532.297 453.031 537.01 453.78C537.578 453.869 538.159 453.832 538.711 453.673C539.264 453.514 539.775 453.236 540.21 452.858C540.644 452.48 540.991 452.012 541.227 451.487C541.463 450.961 541.581 450.389 541.574 449.813C541.574 436.538 545.15 422.501 541.574 421.356L540.129 420.212L536.934 419.602L532.522 418.381C529.479 417.874 526.401 417.618 523.317 417.618C507.396 418.399 491.727 421.908 476.987 427.994C462.561 434.276 449.211 442.798 437.429 453.246C436.855 453.753 436.15 454.085 435.395 454.205C434.64 454.325 433.867 454.228 433.166 453.924C432.464 453.62 431.863 453.122 431.432 452.489C431.002 451.856 430.76 451.113 430.734 450.347L430.05 423.874C430.01 422.828 429.568 421.839 428.816 421.113C428.064 420.387 427.061 419.982 426.018 419.983H398.403C397.877 419.973 397.354 420.068 396.866 420.263C396.377 420.458 395.932 420.748 395.556 421.118C395.181 421.487 394.883 421.928 394.679 422.414C394.475 422.901 394.371 423.423 394.371 423.95Z" fill="#D4B890"/>
</g>
<defs>
<clipPath id="clip0">
<rect width="910" height="687" fill="white"/>
</clipPath>
</defs>
</svg>
