<svg width="212" height="212" viewBox="0 0 212 212" fill="none" xmlns="http://www.w3.org/2000/svg">
<path d="M106 0C47.4559 0 0 47.4559 0 106C0 164.544 47.4559 212 106 212C164.544 212 212 164.544 212 106C212 47.4631 164.544 0.00723303 106 0ZM154.613 152.877C152.711 156.002 148.639 156.978 145.528 155.076C120.64 139.865 89.3062 136.429 52.4105 144.856C48.8519 145.673 45.3077 143.445 44.4976 139.887C43.6802 136.328 45.9008 132.784 49.4667 131.974C89.8414 122.752 124.48 126.723 152.422 143.793C155.532 145.709 156.523 149.767 154.613 152.877ZM167.582 124.025C165.188 127.916 160.096 129.131 156.212 126.744C127.728 109.233 84.2865 104.163 50.5878 114.39C46.219 115.714 41.6044 113.247 40.2735 108.886C38.9571 104.517 41.4235 99.9098 45.7851 98.5789C84.2792 86.8976 132.14 92.5538 164.855 112.662C168.747 115.056 169.976 120.141 167.582 124.025ZM168.696 93.9642C134.527 73.6756 78.1673 71.8095 45.5464 81.7043C40.3097 83.2955 34.7692 80.3372 33.1851 75.1005C31.6011 69.8638 34.5522 64.3233 39.7961 62.732C77.2415 51.369 139.482 53.5606 178.815 76.9088C183.524 79.708 185.071 85.7909 182.28 90.4924C179.495 95.2083 173.397 96.7634 168.696 93.9642Z" fill="#AA8044"/>
</svg>
